<mxfile><diagram id="gY-gtoYMOArlO7bUvSXU" name="Page-1"><mxGraphModel dx="662" dy="377" grid="1" gridSize="10" guides="1" tooltips="1" connect="1" arrows="1" fold="1" page="1" pageScale="1" pageWidth="850" pageHeight="1100" math="0" shadow="0"><root><mxCell id="0"/><mxCell id="1" parent="0"/><mxCell id="2" value="Articulo" style="swimlane;fontStyle=0;align=center;verticalAlign=top;childLayout=stackLayout;horizontal=1;startSize=26;horizontalStack=0;resizeParent=1;resizeParentMax=0;resizeLast=0;collapsible=1;marginBottom=0;" vertex="1" parent="1"><mxGeometry x="40" y="40" width="160" height="150" as="geometry"/></mxCell><mxCell id="3" value="-    nombre: String&#10;-    precio : double" style="text;strokeColor=none;fillColor=none;align=left;verticalAlign=top;spacingLeft=4;spacingRight=4;overflow=hidden;rotatable=0;points=[[0,0.5],[1,0.5]];portConstraint=eastwest;" vertex="1" parent="2"><mxGeometry y="26" width="160" height="44" as="geometry"/></mxCell><mxCell id="4" value="" style="line;strokeWidth=1;fillColor=none;align=left;verticalAlign=middle;spacingTop=-1;spacingLeft=3;spacingRight=3;rotatable=0;labelPosition=right;points=[];portConstraint=eastwest;strokeColor=inherit;" vertex="1" parent="2"><mxGeometry y="70" width="160" height="8" as="geometry"/></mxCell><mxCell id="5" value="+    getNombre ( ) : String&#10;+    getPrecio  ( ) : double&#10;+    setNombre( : void)&#10;+    setPrecio ( : void)" style="text;strokeColor=none;fillColor=none;align=left;verticalAlign=top;spacingLeft=4;spacingRight=4;overflow=hidden;rotatable=0;points=[[0,0.5],[1,0.5]];portConstraint=eastwest;" vertex="1" parent="2"><mxGeometry y="78" width="160" height="72" as="geometry"/></mxCell><mxCell id="6" value="Factura" style="swimlane;fontStyle=1;align=center;verticalAlign=top;childLayout=stackLayout;horizontal=1;startSize=26;horizontalStack=0;resizeParent=1;resizeParentMax=0;resizeLast=0;collapsible=1;marginBottom=0;" vertex="1" parent="1"><mxGeometry x="240" y="40" width="550" height="280" as="geometry"/></mxCell><mxCell id="7" value="-    cajero : String&#10;-    numeroFactura : int&#10;-    articulos : ArrayList &lt; Articulo &gt;&#10;-    fechaEmicion : Date" style="text;strokeColor=none;fillColor=none;align=left;verticalAlign=top;spacingLeft=4;spacingRight=4;overflow=hidden;rotatable=0;points=[[0,0.5],[1,0.5]];portConstraint=eastwest;" vertex="1" parent="6"><mxGeometry y="26" width="550" height="74" as="geometry"/></mxCell><mxCell id="8" value="" style="line;strokeWidth=1;fillColor=none;align=left;verticalAlign=middle;spacingTop=-1;spacingLeft=3;spacingRight=3;rotatable=0;labelPosition=right;points=[];portConstraint=eastwest;strokeColor=inherit;" vertex="1" parent="6"><mxGeometry y="100" width="550" height="8" as="geometry"/></mxCell><mxCell id="9" value="+    Factura (cajero: String, numeroFactura: int, articulo: Array &lt; Articulo &gt;, fechaEmicion: Date )&#10;+    getCajero ( ): void&#10;+    setCajero ( ): void&#10;+    getNumeroFactura ( ): int&#10;+    setNumeroFactura(: void)&#10;+    getArticulos ( ): ArrayList &lt; Articulo &gt;&#10;+    setArticulos ( : void )&#10;+    getFacturaEmicion ( ): Date&#10;+    setFacturaEmicion (: void )&#10;+    calcularTotal ( ): double&#10;+    mostrarFactura ( ): void&#10;" style="text;strokeColor=none;fillColor=none;align=left;verticalAlign=top;spacingLeft=4;spacingRight=4;overflow=hidden;rotatable=0;points=[[0,0.5],[1,0.5]];portConstraint=eastwest;" vertex="1" parent="6"><mxGeometry y="108" width="550" height="172" as="geometry"/></mxCell></root></mxGraphModel></diagram></mxfile>